<svg xmlns="http://www.w3.org/2000/svg" width="285.375" height="305.668" viewBox="0 0 285.375 305.668"><path d="M126.56,323.624c-.441-1.057-.816-2.148-1.332-3.168-2.171-4.276-4.459-8.5-6.553-12.809-1.179-2.431-2.1-4.993-3.077-7.518-3.139-8.071-6.148-16.2-9.421-24.213a110.546,110.546,0,0,0-5.828-12.118c-3.4-6.077-6.8-12.19-10.739-17.916-5.434-7.9-10.905-15.816-17.659-22.7A51.388,51.388,0,0,0,58,213.307c-3.542-1.767-7.154-3.091-11.118-2.589-10.006,1.267-17.913,5.685-22.03,15.406a21.006,21.006,0,0,0-.994,3.806c-.2.922-.215,1.935-1.482,2.009-1.287.075-1.684-.828-1.99-1.864a20.629,20.629,0,0,1-.61-9.189c1.193-7.46,5.631-12.485,12.386-15.37A43.683,43.683,0,0,1,57.655,202.9a57.372,57.372,0,0,1,16.633,6.322,92.668,92.668,0,0,1,10.761,6.836,86.757,86.757,0,0,1,11.1,9.867,111.84,111.84,0,0,1,15.96,21.023c2.745,4.654,5.1,9.554,7.4,14.451a155.83,155.83,0,0,1,7.755,20.611,183.939,183.939,0,0,1,6.368,27.536c.532,3.66,1.1,7.314,1.664,11.054.07-3.622,1.062-7.12.251-10.759a31.229,31.229,0,0,1-.209-5.56c-.157-4.329-.231-8.663-.519-12.984-.515-7.707-.815-15.425-2.055-23.083-.839-5.18-1.114-10.45-1.643-15.68-.949-9.376-1.506-18.794-3.17-28.091a49.5,49.5,0,0,0-12.126-24.917c-3.677-4.082-7.241-8.276-11.1-12.178a61.976,61.976,0,0,0-13.273-10.09c-2.546-1.463-4.993-3.1-7.492-4.644-.714-.442-1.322-1.044-.972-1.876a2.481,2.481,0,0,1,1.392-1.33c7.212-1.9,14.5-2.622,21.791-.568,5.346,1.506,9.386,4.94,12.62,9.383a40.871,40.871,0,0,1,5.874,11.265c1.017,3.081,1.939,6.193,2.914,9.288a4.134,4.134,0,0,0,.427.7c0-1.828.066-3.464-.012-5.093-.322-6.715-.349-13.472-1.68-20.084a97.229,97.229,0,0,0-7.8-22.516,155.881,155.881,0,0,0-15.483-25.853c-4.1-5.549-8.945-10.227-15.255-13.237-2.023-.964-4.035-1.973-5.968-3.1a21.014,21.014,0,0,0-7.9-2.529,14.33,14.33,0,0,0-5.052.151q-6.548,1.512-12.992,3.459a36.286,36.286,0,0,0-11.335,6.236,48.346,48.346,0,0,0-11.011,10.88,109.965,109.965,0,0,0-5.97,9.945c-2.93,5.45-6.087,10.812-7.913,16.779-.746,2.435-1.344,4.921-1.908,7.406-.65,2.861-1.154,5.756-1.789,8.62-.383,1.726-1.819,2.177-3.041.9-6.031-6.287-9.851-13.511-10.217-22.478a44.173,44.173,0,0,1,9.753-29.789,53.34,53.34,0,0,1,14.347-12.718,71.858,71.858,0,0,1,16.108-7.591,68.006,68.006,0,0,1,13.4-2.626c4.154-.422,8.3-.981,12.458-1.314A32.343,32.343,0,0,1,85.079,97.5c4,1.836,7.972,3.759,11.874,5.8a56.849,56.849,0,0,1,13.865,10.8c2.935,2.972,5.759,6.06,8.523,9.193,2.54,2.881,4.051,6.368,5.474,9.9a80.532,80.532,0,0,1,4.192,14.7,6.884,6.884,0,0,0,.594,1.186c.811-5.895,2.291-11.259,1.964-16.83a94.957,94.957,0,0,0-3.775-21.2,94.89,94.89,0,0,0-5.64-13.462c-2.175-4.615-4.632-9.1-6.992-13.621-2.349-4.5-5.523-8.2-10.222-10.415-3.071-1.447-6.054-3.1-9.19-4.378A20.1,20.1,0,0,0,89.9,67.824c-3.923-.329-7.87-.381-11.806-.541a48.741,48.741,0,0,0-11.944,1.328,5.761,5.761,0,0,1-1.82.31c-.612-.084-1.482-.37-1.678-.816a1.954,1.954,0,0,1,.5-1.787c1.564-1.26,3.247-2.377,4.924-3.489C72.8,59.7,77.68,56.815,83.238,55.455c4.12-1.009,8.3-1.8,12.5-2.457a66.73,66.73,0,0,1,8.084-.6,38.653,38.653,0,0,1,13.477,2.019,26.529,26.529,0,0,1,15.3,12.458c3.644,6.489,4.922,13.606,5.212,20.946.183,4.63.321,9.262.748,14.009.5-1.4.959-2.807,1.5-4.188,1.407-3.6,2.807-7.2,4.292-10.763a14.186,14.186,0,0,0,.818-6.155c-.091-2.318-.379-4.628-.487-6.945-.1-2.243-.147-4.494-.092-6.739a2.493,2.493,0,0,1,.791-1.738,1.486,1.486,0,0,1,2.047.534,26,26,0,0,1,2.035,3.066,13.792,13.792,0,0,1,.792,1.859c2.334-1.049,4.525-2.172,6.816-3.024,2.11-.786,3.2.088,2.848,2.321a17.845,17.845,0,0,1-1.518,4.315,36.078,36.078,0,0,1-1.98,3.378c.832-.462,1.336-.729,1.828-1.018a99.787,99.787,0,0,1,21.681-9.891c5.534-1.674,11.206-2.223,16.892-2.831a61.484,61.484,0,0,1,22.5,1.976,149.436,149.436,0,0,1,17.695,5.539c1.286.52,2.5,1.218,3.752,1.822a1.549,1.549,0,0,1,1.01,1.859c-.208,1-.948,1.112-1.775,1.052a5.483,5.483,0,0,1-1.378-.173,46.848,46.848,0,0,0-13.928-2.205c-6.884-.228-13.784-.456-20.557,1.319a74.711,74.711,0,0,0-21.042,8.974c-7.132,4.491-14.127,9.2-21.3,13.638-3.871,2.395-8.026,4.326-11.969,6.612-3,1.74-5.9,3.658-8.783,5.6a7.312,7.312,0,0,0-2.85,4.611c-1.922,7.6-2.751,15.361-3.717,23.109-.361,2.9-.888,5.777-1.4,9.059a6.788,6.788,0,0,0,.8-.977c2.194-4.694,4.305-9.428,6.571-14.086a35.242,35.242,0,0,1,11.344-13.855,93.736,93.736,0,0,1,15.24-8.8,91.64,91.64,0,0,1,20.492-6.54,65.306,65.306,0,0,1,8.995-.839c8.576-.458,17.153-.916,25.735-1.2a80.562,80.562,0,0,1,8.8.492c5.394.412,10.78.911,16.176,1.3,3.927.286,7.86.6,11.794.652A101.229,101.229,0,0,0,282.68,100.1c.075-.016.147-.091.214-.083.722.085,1.779-.076,2.09.331a1.872,1.872,0,0,1-.235,2.541,56.241,56.241,0,0,1-5.282,4.511,41.045,41.045,0,0,1-16.793,6.968c-5.177.876-10.326,1.915-15.516,2.692-4.2.628-8.318-.143-12.419-1.106-4.585-1.077-9.154-2.206-13.945-2.185-4.4.019-8.581,1.1-12.774,2.153a58.3,58.3,0,0,0-17.31,7.666c-3.776,2.42-7.647,4.695-11.485,7.019q-7.939,4.81-15.9,9.587c-1.859,1.109-3.769,2.132-5.671,3.165a103.206,103.206,0,0,0-17.631,11.987c-3.814,3.239-6.048,7.554-7.759,12.192-2.235,6.055-2.127,12.291-1.672,18.575.106,1.466.134,2.939.2,4.409.164,3.708.427,7.416.458,11.125.022,2.622-.391,5.247-.394,7.871-.006,3.677.19,7.354.3,11.031l.478,0c.193-3.7.373-7.4.581-11.094.381-6.791.653-13.614,2.706-20.163,2.5-7.956,5.762-15.57,11.584-21.731a66.509,66.509,0,0,1,7.806-6.9,54.639,54.639,0,0,1,24.7-10.584,47.958,47.958,0,0,1,15.475.184c2.749.434,5.515.793,8.239,1.352a32.763,32.763,0,0,1,4.84,1.538,1.674,1.674,0,0,1,1.238,1.772c-.1.969-.84,1.184-1.631,1.368-1.278.3-2.541.663-3.82.953a81.489,81.489,0,0,0-15.07,5.294,67.628,67.628,0,0,0-11.228,6,23.971,23.971,0,0,0-7.2,7.767q-5.515,9.561-11.856,18.586c-1.776,2.522-3.133,5.338-4.742,7.983q-3.741,6.147-7.572,12.24a50.753,50.753,0,0,0-5.083,11.418c-1.361,4.193-2.782,8.366-4.185,12.544a40.516,40.516,0,0,0-1.758,18.283c.589,4.6,1.024,9.222,1.634,13.82a283.048,283.048,0,0,1,2,30.065c.184,7.271.21,14.546.312,21.825-.019.117-.044.231-.068.343l.016-.407c.519-1.586,1.142-3.146,1.539-4.762,1.921-7.806,3.691-15.648,5.689-23.433a104.312,104.312,0,0,1,7.745-19.6,80.887,80.887,0,0,1,20.013-25.63c3.672-3.2,7.375-6.377,11.225-9.356a36.065,36.065,0,0,1,18.979-7.382,106.826,106.826,0,0,1,16.47-.319,54.309,54.309,0,0,1,18.34,4.591q3.51,1.5,6.914,3.255a41.373,41.373,0,0,1,11.286,9.174c.661.713,1.281,1.481.49,2.432a1.752,1.752,0,0,1-2.512.188,22.382,22.382,0,0,0-6.974-3.071,52.055,52.055,0,0,0-6.737-1.574,56.319,56.319,0,0,0-17.758.668,44.907,44.907,0,0,0-15.483,6.55,75.08,75.08,0,0,0-10.207,8.006c-4.792,4.5-8.321,9.962-11.817,15.451-2.2,3.459-4.484,6.871-6.612,10.376-2.848,4.694-5.682,9.4-8.34,14.2-3.706,6.7-7.1,13.568-10.909,20.2-2,3.475-4.6,6.6-6.914,9.892-1.733,2.472-3.488,4.931-5.133,7.46a60.8,60.8,0,0,1-11.495,12.993c-1.408,1.208-2.81,2.424-4.219,3.632-.235.2-.487.383-.731.575a1.765,1.765,0,0,1-2.34.147,2.754,2.754,0,0,1-.5-1.875c.034-3.087.414-6.194.187-9.258-.705-9.522-4.707-17.418-12.461-23.132a32.15,32.15,0,0,0-15.192-5.9c-8.641-1.124-16.752,1.087-24.774,3.767-3.659,1.222-7.222,2.764-10.754,4.328-4.592,2.034-9.111,4.235-13.66,6.365a78.125,78.125,0,0,1-15.533,5.36,69.877,69.877,0,0,1-12.326,2,33.923,33.923,0,0,1-11.234-1.265c-3.635-1.064-7.253-2.18-10.877-3.279a5.373,5.373,0,0,1-1.083-.415,1.457,1.457,0,0,1-.277-2.487,3.368,3.368,0,0,1,1.227-.629c6.364-1.857,12.089-5.132,17.961-8.076,7.606-3.813,15.088-7.895,22.816-11.438,8.154-3.74,16.57-6.861,25.518-8.265,6.35-1,12.7-2,19.155-1.612,8.438.5,16.58,2.353,23.9,6.672a42.788,42.788,0,0,1,8.007,6.634c2.3,2.271,4.2,4.944,6.291,7.423a10.038,10.038,0,0,0,1.148,1q.108.584.216,1.169l1.372.876a2.177,2.177,0,0,0-.072.4c0,.071.076.142.117.213l-.031-.6c-.474-.286-.948-.572-1.413-.865C126.72,324.389,126.64,324.006,126.56,323.624ZM91.373,228.911l.606.651c.233-.031.466-.062.7-.084.023.281.047.562.072.843.3,0,.6-.009.9-.006.006.307.012.614.038.923.283.038.566.076.844.125.106.2.212.409.325.609l.71.414-.091.031.127.077-.808-.483-.3-.593-.848-.195.029-.9-.942-.019-.039-.792c-.234.019-.467.038-.7.053l-.678-.668-.068-.711L90.4,228l-.035-.809-.9-.083-.16-.713-.674-.205-.256-.679-.448-.457-.461-.468a15.534,15.534,0,0,0-7.432-6.047,1.173,1.173,0,0,0-1.544-.77l.085-.068-.144-.023,1.643.818a29.96,29.96,0,0,0,2.376,2.32c1.642,1.3,3.364,2.494,5.052,3.734q.233.231.467.46l.455.459a6.283,6.283,0,0,0,.274.66c.217.075.435.15.65.23.042.254.082.507.127.762.289.01.577.019.863.035.024.287.048.575.076.863.277.037.554.074.829.119C91.279,228.393,91.314,228.654,91.373,228.911Zm-11.428-.187.758.461.566.407c-.05.41-.1.82-.128,1.219.235.093.469.186.708.274l.7.312c-.211,1.047.4,1.589,1.228,2a6.039,6.039,0,0,0,.516,1.238q5.022,7.118,10.091,14.2a2.093,2.093,0,0,0,.541.39c.559,1.09,1.077,2.2,1.684,3.266,4.385,7.671,8.806,15.327,12.076,23.565q4.59,11.559,9.049,23.17a117.687,117.687,0,0,0,8.385,18.1l.041-.1-.133.079c-.235-.967-.394-1.96-.718-2.9-1.515-4.381-3.162-8.718-4.6-13.125a133.976,133.976,0,0,0-7.785-19.08c-1.361-2.688-2.618-5.429-3.926-8.144a191.764,191.764,0,0,0-12.632-23.187,13.651,13.651,0,0,0-1.487-1.618,3.209,3.209,0,0,0-.27-1.064q-4.891-7.011-9.843-13.979a4.358,4.358,0,0,0-1.038-.782c-.418-.658-.835-1.316-1.264-1.964l-.688-.324-.693-.327c.063-.424.125-.848.18-1.265-.213-.112-.427-.225-.649-.333l-.743-.46-.024-.127A.721.721,0,0,0,79.945,228.724Zm13.917-1.084.1-.114-.175.081-.383-.69-.516-.338c.255-.73-.1-1.012-.776-1.062a5.261,5.261,0,0,0-.7-1.124,75.381,75.381,0,0,0-29.937-18.161A41.451,41.451,0,0,0,33.029,207.6a17.5,17.5,0,0,0-11.1,18.618c.246-.02.363,0,.383-.037a9.445,9.445,0,0,0,.521-1.026A23.985,23.985,0,0,1,33.8,212.644a38.482,38.482,0,0,1,29.712-3.286A63.063,63.063,0,0,1,89.38,223.5a27.93,27.93,0,0,0,2.779,1.967c.264.352.527.7.8,1.043.168.121.336.242.508.363C93.6,227.133,93.735,227.389,93.862,227.639Zm-17.856-4.083-.077.038.121.064-.767-.5L75,222.568l-.619-.309-.461-.464-.445-.471-.433-.459-.465-.464-.46-.47-.463-.466L71.188,219c-.2-.308-.326-.715-.6-.91-3.188-2.235-6.367-4.486-9.624-6.613a10.381,10.381,0,0,0-2.777-.851l-.224-.319-.142.229.414.035a5.633,5.633,0,0,0,1.008.839,53.83,53.83,0,0,1,10.8,6.967,5.4,5.4,0,0,0,1.185.583q.231.234.461.469l.468.46.462.468.467.462c.148.151.3.3.445.451s.3.313.449.468.305.308.461.46c.2.1.4.2.594.317.1.2.2.4.3.6C75.565,223.263,75.791,223.412,76.006,223.557Zm45.446,97.919.06-.048-.126.009-.556-.555a6.073,6.073,0,0,0-.65-1.405,32.6,32.6,0,0,0-15.142-10.755,76.742,76.742,0,0,0-20.592-3.3,42.249,42.249,0,0,0-17.758,2.99c-9.94,3.977-19.663,8.346-28.277,14.922-8.34,6.367-18,9.522-28.372,10.634-.483.051-.957.181-1.9.364.739.32,1,.47,1.286.551,5.626,1.6,11.326,2.771,17.2,1.883,3.976-.6,7.945-1.342,11.851-2.291,7.279-1.768,13.952-5.108,20.65-8.35,8.317-4.028,16.8-7.611,25.849-9.685a45.215,45.215,0,0,1,18.906-.731,33.446,33.446,0,0,1,17.647,9.245c.54.537.894,1.551,1.987,1.237.232.609.463,1.217.685,1.82l.06-.057-.137.018-.616-1.773c-3.273-4.509-7.561-7.914-12.06-11.093a19.441,19.441,0,0,0-7.149-3.2q-2.945-.638-5.886-1.3c-.6-.137-1.277-.245-.982-1.359,1.905-.1,3.717.637,5.585.953a23.134,23.134,0,0,1,10.663,4.82c2.419,1.923,4.812,3.876,7.222,5.814C121.089,321.049,121.276,321.266,121.452,321.476ZM74.213,218.734l.274.7c.424.617.807,1.268,1.278,1.848,4.488,5.518,9.2,10.864,13.444,16.565a212.008,212.008,0,0,1,22.284,38.2c3.291,7.16,7.014,14.126,9.517,21.632a3.438,3.438,0,0,0,.492.738c.2.411.4.822.584,1.25.146.442.292.884.439,1.331l-.028.37.049-.358-.46-1.336-.639-1.205a18.074,18.074,0,0,0-.48-2.249c-2.436-7.09-4.866-14.183-7.365-21.251A145.291,145.291,0,0,0,98.772,245.12c-6.088-9.519-13.234-18.1-22.557-24.675a17.4,17.4,0,0,0-1.768-.969l-.24-.737-.109-.089A.3.3,0,0,1,74.213,218.734ZM98.2,236.068l.808.453c.011.361.021.723.039,1.078l.812.262a1.07,1.07,0,0,0,.689,1.574c.778,1.488,1.486,3.019,2.346,4.458,6.368,10.656,12.138,21.6,15.9,33.482,4.041,12.759,7.921,25.57,11.871,38.358.213.688.423,1.378.633,2.067a2.347,2.347,0,0,0,.151-1.433,224.443,224.443,0,0,0-8.291-35.216,126.2,126.2,0,0,0-15.84-32.943c-2.093-3.034-4.537-5.826-6.821-8.729-.231-.529-.461-1.057-.715-1.57l-.814-.241c.011-.388.022-.774.026-1.165l-.843-.382Zm19.725,26.781-.121.283.189-.261-.528-1.015-.62-.642-.469-.9c-.207-.249-.415-.5-.617-.752l-.314-1.094c-.206-.258-.413-.516-.614-.779l-.349-1.049-.478-.916a3.315,3.315,0,0,0-.17-.889,79.817,79.817,0,0,0-13.16-19.053,8.477,8.477,0,0,0-1.085-.835c1.968,3.174,4.186,6.061,6.276,9.037,2.4,3.419,4.681,6.922,7.034,10.374a14.7,14.7,0,0,0,1.15,1.328c.159.306.318.611.475.919l.347,1.049c.206.258.413.516.615.777l.321,1.087c.207.247.416.494.618.747.157.3.313.595.464.9l.572.695C117.613,262.187,117.771,262.518,117.92,262.849Zm-49-49.556-.064,0,.12.047,1.112.3a4.561,4.561,0,0,0,.806,1.211c1.411,1.086,2.9,2.072,4.326,3.139,5.218,3.9,10.367,7.885,14.63,12.866A138.361,138.361,0,0,1,106.973,256.5c5.7,10.809,9.691,22.295,13.566,33.817,2.813,8.365,5.236,16.86,7.849,25.292.286.922.689,1.806,1.038,2.708a5.541,5.541,0,0,0-.208-2.612c-2.811-9.424-5.6-18.855-8.47-28.26-4.179-13.675-9.483-26.87-16.877-39.166-3.033-5.044-5.811-10.264-9.756-14.689a105.622,105.622,0,0,0-24.1-19.906C69.65,213.553,69.282,213.42,68.919,213.293Zm79,122.272.241-1.023c.421-.225.973-.348,1.239-.693,1.421-1.839,2.745-3.751,4.147-5.606a91.335,91.335,0,0,0,8.522-13.561c2.61-5.106,5-10.345,7.942-15.253,5.695-9.5,11.667-18.833,17.61-28.181a59.938,59.938,0,0,1,14.821-15.588c14.566-10.985,30.587-13.473,47.934-8.192.268.081.543.143.814.215l.437-.562a6.577,6.577,0,0,1-1.224-.658,45.293,45.293,0,0,0-19.514-9.35c-8.206-1.894-16.319-.929-24.426.734-6.151,1.262-11.95,3.347-16.969,7.2a133.322,133.322,0,0,0-18.79,17.29c-5.811,6.569-9.894,14.275-13.25,22.292A368.632,368.632,0,0,0,142.85,327.5a116.257,116.257,0,0,1-5.388,16.068q-.879,1.975-1.751,3.953a19.15,19.15,0,0,0,3.459-4.905c3.313-7,6.758-13.949,9.7-21.105,4.217-10.263,8.957-20.271,14.033-30.116,4.484-8.7,10.458-16.477,15.832-24.623a49.8,49.8,0,0,1,17.494-16.024c3.026-1.7,6.281-3,9.443-4.461.6-.276,1.284-.641,1.763.2-.093.213-.115.424-.218.476-.616.314-1.239.618-1.88.877-10.131,4.1-18.855,10.052-25.109,19.2-4.023,5.884-8.078,11.755-11.87,17.789-6.7,10.659-11.824,22.132-16.7,33.7-3.731,8.857-7.45,17.707-12.008,26.18a6.14,6.14,0,0,0-.358,1.288l-.172.038.118,0a50.857,50.857,0,0,0,4.236-5.8c4.813-8.926,9.633-17.856,14.112-26.952,3.281-6.663,6.029-13.587,9.029-20.388.353-.8.793-1.559,1.269-2.488.413.435.723.649.69.743-5.358,15.157-13.089,29.2-20.334,43.489-.119.332-.239.665-.356,1l.011.125ZM196.188,239.7l.637-.749c.328-.228.658-.455,1.008-.673.523-.118,1.046-.236,1.58-.346.428-.188.858-.377,1.305-.551l1.774-.164,13.6-2.472a8.9,8.9,0,0,0-3.052-.3q-3.59.179-7.175.441a2.39,2.39,0,0,0-1.269.422c-.734.592-1.374,1.3-2.061,1.95l-1.815.127-1.259.591-1.621.3c-.319.245-.638.491-.958.735-.228.233-.455.465-.707.68l-1.285.228c-.725.244-1.469.443-2.171.741-5.162,2.2-9.258,5.873-13.3,9.62a18.274,18.274,0,0,1-1.92,1.679c-.23.16-.719-.052-1.09-.1l-.21-.483c2.336-2.1,4.553-4.365,7.042-6.271a63.789,63.789,0,0,1,8.152-5.309c2.7-1.474,5.626-2.536,8.453-3.778a26.644,26.644,0,0,0-11.393,4.359c-7.127,4.508-13.116,10.368-19.068,16.253-9.658,9.547-15.543,21.384-19.917,33.991-1.843,5.314-2.681,10.97-4.086,16.444-2.755,10.727-5.588,21.435-8.384,32.151-.2.781-.368,1.571-.551,2.357l.483.138c1.067-3.219,2.2-6.42,3.187-9.662,2.218-7.259,4.189-14.6,6.587-21.8,3.084-9.254,5.944-18.6,10.047-27.487,3.353-7.261,6.879-14.5,12.233-20.487,7.443-8.325,15.433-16.123,25.184-21.836a5.13,5.13,0,0,0,.675-.582Zm-89.21-112.1.067-.115-.158.09-.249-1.268a42.159,42.159,0,0,0-21.48-19.981,17.14,17.14,0,0,0-7.615-1.145c.623.391.854.566,1.11.691,3.964,1.924,7.96,3.787,11.888,5.779a32.662,32.662,0,0,1,9.663,7.527c1.646,1.851,3.2,3.785,4.834,5.646a17.9,17.9,0,0,0,1.635,1.438C106.778,126.7,106.881,127.15,106.978,127.592Zm163.061-18.066-1.193.595c-.68.119-1.365.214-2.038.363-2.265.5-4.515,1.07-6.788,1.524a119.553,119.553,0,0,1-18.21,2,4.719,4.719,0,0,0-2.909.9c2.679.054,4.843.287,6.972.107a124.606,124.606,0,0,0,20.945-3.972,11.118,11.118,0,0,0,1.984-.968c.4-.173.8-.347,1.213-.52l.235.059ZM123.9,157.385l.108.423-.129-.382-.539-1.287a5.627,5.627,0,0,0-.152-1.139A160,160,0,0,0,112.81,130.43c-3.2-5.846-6.493-11.648-11.61-16.126-1.33-1.163-2.622-2.374-4.457-2.694l-.121-.166.177.115a5.728,5.728,0,0,0,.7.89,46.924,46.924,0,0,1,10.721,13.581c5.036,9.324,10.168,18.6,14.08,28.478a8.854,8.854,0,0,0,1.083,1.594C123.562,156.526,123.739,156.948,123.9,157.385Zm13.547,57.469c.994-.515.747-1.334.529-2.148a4.018,4.018,0,0,0,.731-1.017c.485-1.551.891-3.128,1.338-4.691,3.152-11.027,7.42-21.508,14.583-30.643a59.35,59.35,0,0,1,32.267-21.5c.686-.181,1.358-.417,2.035-.627a37.7,37.7,0,0,0-18.818,5.95,72.514,72.514,0,0,0-13.563,12.292,71.9,71.9,0,0,0-18.51,40.31q-.294,1.039-.588,2.082.016,1.551.033,3.1a3.742,3.742,0,0,0-.67,1.09c-.71,3.628-1.372,7.267-2.033,10.918l-.157.729.247.013-.136-.8a5.147,5.147,0,0,0,.71-1.319c.71-3.543,1.366-7.1,2.039-10.664ZM240.864,110.383c.842-.047,1.683-.12,2.526-.134,3.169-.051,6.338-.053,9.505-.14a16.114,16.114,0,0,0,2.445-.433c-4.3-.13-8.554-.031-12.8.133a6.149,6.149,0,0,0-1.67.576q-4.134,0-8.267,0ZM143.473,214.561c1.678-2.692,3.367-5.377,5.032-8.077,3.457-5.6,6.881-11.227,10.355-16.82,2.288-3.684,4.64-7.329,6.942-11.006.033-.137.07-.272.092-.411a.869.869,0,0,0-.151-.053l.14.513c-.43.225-1,.343-1.269.693-1.371,1.768-2.772,3.529-3.966,5.418q-6.064,9.595-11.981,19.283-2.422,3.948-4.614,8.031a8.58,8.58,0,0,0-.509,2.364l-.083-.079ZM126.2,158.413v1.151l.266-.048-.312-1.068a18.8,18.8,0,0,0-.239-2.069,134.394,134.394,0,0,0-6.214-20.189,41.748,41.748,0,0,0-9.732-14.856c-.324-.313-.722-.55-1.455-1.1,2.341,4.1,4.547,7.66,6.462,11.372A172.913,172.913,0,0,1,125.1,156.311,14.906,14.906,0,0,0,126.2,158.413ZM180.236,69a105.031,105.031,0,0,0-18.194,8.1,30.719,30.719,0,0,0-10.423,8.726c-2.433,3.382-4.565,6.984-6.762,10.531a6.283,6.283,0,0,0-.4,1.908l-.212-.071.189.068c2.077-2.487,3.926-5.218,6.272-7.42a147.439,147.439,0,0,1,28-20.535,11.7,11.7,0,0,0,1.51-1.249.579.579,0,0,1,.19-.044c.047.006.088.063.133.1Zm-62.264,129.73.106-.047-.153,0a7.435,7.435,0,0,0-.422-1.922,29.338,29.338,0,0,0-9.187-10.913,30.809,30.809,0,0,1-2.723-2.173,6.392,6.392,0,0,1-.825-1.282c.635,0,1.089-.143,1.3.022,3.471,2.712,7.277,5.093,9.688,8.924,1.9,3.013,3.616,6.136,5.415,9.21l1.6,2.73a2.954,2.954,0,0,0-.391-2c-1.9-3.461-3.755-6.946-5.749-10.351a35.774,35.774,0,0,0-9.909-10.648c-5.1-3.756-10.556-6.782-16.841-8.06a14.732,14.732,0,0,0-1.821-.147,15.613,15.613,0,0,0,3.472,2.579,68.086,68.086,0,0,1,14.64,10.994C110.251,189.868,114.05,194.362,117.972,198.727Zm74.386-40.837c-10.417,2.632-19.272,8.128-26.906,15.463a88.914,88.914,0,0,0-22.137,34.8c-.38,1.065-.655,2.168-1.094,3.638.491-.412.646-.486.72-.61,3.665-6.11,7.261-12.263,11-18.325q3.906-6.324,8.144-12.44c4.524-6.5,10-12.053,17.061-15.821,3.479-1.859,7.1-3.448,10.643-5.189.876-.431,1.694-.981,2.543-1.472a.692.692,0,0,1,.19-.032c.049,0,.094.049.141.077ZM133.9,152.336a7.252,7.252,0,0,0,.853-1c1.914-3.273,3.708-6.62,5.719-9.832,8.065-12.873,18.268-23.61,31.538-31.241.511-.294.983-.654,1.473-.984a1.963,1.963,0,0,0-1.383.1,88.664,88.664,0,0,0-14.931,7.482c-6.241,3.89-11.418,8.741-14.548,15.542-2.266,4.924-4.645,9.8-6.871,14.736a54.043,54.043,0,0,0-1.789,5.259l-.071.383Zm5.911,60.8a7.48,7.48,0,0,0,1.006-1.647,92.04,92.04,0,0,1,15.642-30.147c10.529-13.635,23.909-22.78,40.981-26.158a8.749,8.749,0,0,0,1.393-.526,1.455,1.455,0,0,0-.974-.227,58.494,58.494,0,0,0-29.223,10.338c-7.777,5.45-13.658,12.538-18.424,20.645-5.084,8.646-7.882,18.147-10.352,27.783l-.619,3.182.461.037Q139.76,214.776,139.815,213.137ZM11.406,165.243l-.06.1.085-.066a37.818,37.818,0,0,1-2.273-18.259c1.121-9.1,4.5-17.51,8.516-25.668a28.008,28.008,0,0,1,7.335-8.913A73.282,73.282,0,0,1,40.927,102.5a16.5,16.5,0,0,0,2.046-1.377l.451.056-.44-.073c-.572.226-1.142.457-1.715.677C30.445,105.92,20.821,111.8,13.753,121.207c-6.675,8.882-9.944,18.82-8.621,30.029a27.575,27.575,0,0,0,4.622,12.751C10.147,164.55,10.308,165.553,11.406,165.243Zm129.914-58.924a7.482,7.482,0,0,0,1.432-.455c2.508-1.381,5.007-2.778,7.485-4.214,5.758-3.336,11.556-6.609,17.234-10.078,4.029-2.46,7.836-5.283,11.837-7.794a87.68,87.68,0,0,1,21.193-9.9c8.925-2.7,18-2.8,27.168-2.078.805.063,1.61.14,2.414.21a2.942,2.942,0,0,0-1.592-1.014c-1.94-.536-3.885-1.057-5.837-1.543-9.231-2.3-18.511-3.684-28.059-2.143-7.1,1.146-14.02,2.747-20,6.958q-9.022,6.351-17.847,12.98a53.009,53.009,0,0,0-9.532,9.484,6.531,6.531,0,0,0-1.539,2.556,18.058,18.058,0,0,0,2.685-1.89c4.284-3.57,8.5-7.22,12.848-10.716,8.021-6.453,17.272-10.553,26.942-13.813.575-.194,1.2-.518,1.675.653-1.018.419-2.025.882-3.065,1.253-9.021,3.224-17.649,7.2-25.13,13.311-5.578,4.558-11.136,9.143-16.593,13.844a32.078,32.078,0,0,0-3.65,4.435.8.8,0,0,0-.126.152c-.009.017.049.069.078.1Zm-70.334-42.8a20.18,20.18,0,0,0,2.718-.392c14.167-4,27.471-1.612,40.095,5.489a24.257,24.257,0,0,1,10.86,12.041,103.526,103.526,0,0,1,3.448,9.861c1.993,6.675,4.295,13.279,5.182,20.24.163,1.272.3,2.549.454,3.823a3.615,3.615,0,0,0,.32-1.4,84.58,84.58,0,0,0-1.677-21.264,81.593,81.593,0,0,0-2.9-10.507,31.909,31.909,0,0,0-10.03-14.284c-.576-.477-1.573-.806-1.042-2.3a21.56,21.56,0,0,1,1.94,1.269,34.23,34.23,0,0,1,9.4,12.255,61.82,61.82,0,0,1,4.678,17.211c.4,2.82.7,5.654,1.051,8.483a25.09,25.09,0,0,0,.428-5.739c-.051-7.212-.149-14.419-1.878-21.484A29.5,29.5,0,0,0,127.663,63.8c-5.158-5.785-11.837-8.463-19.338-8.919-13.277-.809-25.955,1.345-37.355,8.73l.112.047Zm64.835,89.6c1.591-2.287,3.109-4.629,4.787-6.849,4.261-5.636,8.734-11.086,14.517-15.277,5.27-3.82,10.525-7.661,15.852-11.4,2.023-1.42,4.222-2.592,6.356-3.852.516-.3,1.117-.714,1.626.37-.434.328-.88.7-1.362,1.025-3.609,2.4-7.27,4.726-10.826,7.2-4.068,2.834-8.161,5.651-12.034,8.739-7.613,6.066-13.282,13.82-18.434,21.98a2.535,2.535,0,0,0-.115.728c6.35-5.906,13.4-10.373,20.62-14.623,10.482-6.169,20.992-12.3,31.313-18.729a89.9,89.9,0,0,1,29.426-11.712,124.932,124.932,0,0,1,17.767-1.921c8.118-.5,16.257-.639,24.387-.965a50.546,50.546,0,0,0,17.271-3.256c.71-.289,1.382-.672,2.072-1.011a6.32,6.32,0,0,0-2.65.082c-11.861,2.261-23.78,1.411-35.69.625-6.411-.424-12.814-1.489-19.215-1.44-9.752.076-19.5.814-29.247,1.377a31.567,31.567,0,0,0-14.367,4.245c-4.269,2.517-8.562,5.031-12.6,7.9-12.54,8.91-21.356,20.993-28.619,34.332a12,12,0,0,0-.731,2.393l-.135-.046.106-.029ZM13.951,168.084a9.392,9.392,0,0,0,.456-1.025c.182-.911.365-1.822.522-2.738A63.486,63.486,0,0,1,21.1,145.163c2.425-4.587,4.863-9.169,7.369-13.713a45.8,45.8,0,0,1,8.821-11.321c5.763-5.412,12.043-10.006,19.768-12.223,3.944-1.133,7.917-2.168,11.9-3.162a33.569,33.569,0,0,1,21.6,1.868,63.512,63.512,0,0,1,11.765,6.513c8.8,6.11,15.726,13.767,19.228,24.094,1.765,5.2,3.324,10.473,4.973,15.715.225.713.432,1.432.648,2.148a5.393,5.393,0,0,0,.251-2.321A69.288,69.288,0,0,0,124.4,138.7c-1.712-5.075-3.531-10.123-7.006-14.319-8.773-10.6-19.04-19.22-31.968-24.429C79.087,97.4,72.653,96.3,65.887,97.494c-2.745.486-5.481,1.019-8.226,1.506a68.163,68.163,0,0,0-27.538,11.208c-5.51,3.848-10.155,8.421-12.727,14.735-1.839,4.514-3.577,9.082-5.094,13.712a39.888,39.888,0,0,0-.01,25.136C12.706,165.083,13.267,166.328,13.951,168.084ZM189.93,152.33l-.026-.233c-.609-.055-1.218-.121-1.828-.166-18.234-1.33-39.428,11.562-46.483,26.692-3.127,6.707-5.852,13.512-6.363,20.982-.471,6.874-.822,13.756-1.207,20.637-.055.989-.007,1.984-.007,2.976a3.277,3.277,0,0,0,.775-1.655c.686-3.415,1.53-6.81,2-10.255a75.152,75.152,0,0,1,10.942-29.623c3.778-6.112,8.643-11.317,13.716-16.325,7.227-7.133,15.807-11.588,26.021-12.624C188.3,152.653,189.111,152.467,189.93,152.33Zm-58.2-40.171.313-.075c-.047-.455-.072-.916-.147-1.366-1.632-9.739-4.648-19.1-7.979-28.349-2.26-6.281-6.782-10.631-12.644-13.646-1.445-.742-2.926-1.424-4.428-2.042-10.257-4.214-20.764-5.419-31.592-2.538a12.7,12.7,0,0,0-1.52.616c3.653.4,7.21.352,10.765.41,3.721.061,7.5.1,10.991,1.515,3.652,1.473,7.238,3.148,10.738,4.958a22.577,22.577,0,0,1,9.295,8.536c.712,1.2,1.511,2.353,2.131,3.6,3.176,6.374,6.306,12.772,9.45,19.163.171.347.3.716.48,1.056.141.267.335.508.73,1.09-2.979-12.385-9.27-22.521-16.872-31.943a16.112,16.112,0,0,0-8.46-5.452c-1.119-.309-2.254-.578-3.346-.964-.326-.115-.532-.568-1-1.1a6.256,6.256,0,0,1,1.428-.128c4.907.98,9.343,2.866,12.552,6.9A107.944,107.944,0,0,1,123.19,87.939a89.753,89.753,0,0,1,7.943,22C131.314,110.686,131.528,111.42,131.726,112.159ZM6.187,332.164l.171.548c.673,0,1.348.044,2.017-.006a56.582,56.582,0,0,0,28.795-10.083c3.232-2.262,6.412-4.643,9.843-6.563a128.941,128.941,0,0,1,20.9-9.539c.557-.192,1.087-.459,1.63-.693a48.6,48.6,0,0,0-8,1.347c-8.588,2.232-16.673,5.795-24.6,9.685-8.2,4.024-16.279,8.308-24.433,12.434C10.438,330.336,8.294,331.211,6.187,332.164ZM120.976,195.518c.191-.265.283-.342.27-.383-3-9.119-8.007-16.7-16.532-21.594a12.154,12.154,0,0,1-1.464-1.227c1.63-.627,2.5.18,3.347.72a36.575,36.575,0,0,1,13.909,16.423c1.382,3.11,2.5,6.335,3.752,9.505.6,1.534,1.224,3.061,1.836,4.592l.545-.195c-1.259-4.128-2.315-8.333-3.838-12.362a61.539,61.539,0,0,0-4.735-9.8,22.352,22.352,0,0,0-13.158-10.437,31.249,31.249,0,0,0-14.043-.382,3.439,3.439,0,0,0-.733.363C104.165,174.655,114.466,182.7,120.976,195.518Zm28.489-114.38c4.1-2.573,7.861-7.913,7.794-10.925C152.4,71.164,150.356,73.753,149.465,81.138Zm-2.023-.512c1.807-3.822,1.318-9.311-.786-11.351,0,.851-.051,1.617.009,2.374C146.9,74.643,147.18,77.635,147.441,80.626ZM247.536,112.1c-2.465-.648-11.344-.468-14.38.291C235.695,113.069,243.873,112.9,247.536,112.1Zm-17.8-1.234-.049-.144-.858.086,0,.058Z" transform="translate(0 -52.379)"/></svg>