<?xml version="1.0" encoding="utf-8"?>
<!-- Generator: Adobe Illustrator 24.0.0, SVG Export Plug-In . SVG Version: 6.00 Build 0)  -->
<svg version="1.1" id="레이어_1" xmlns="http://www.w3.org/2000/svg" xmlns:xlink="http://www.w3.org/1999/xlink" x="0px"
	 y="0px" viewBox="0 0 28.5 28.5" style="enable-background:new 0 0 28.5 28.5;" xml:space="preserve">
<style type="text/css">
	.st0{fill:none;stroke:#000000;stroke-width:2;stroke-linecap:round;stroke-linejoin:round;}
	.st1{fill:#FFFFFF;}
</style>
<path class="st0" d="M8.3,4.3l-3,4v14c0,1.1,0.9,2,2,2h14c1.1,0,2-0.9,2-2v-14l-3-4H8.3z"/>
<line class="st0" x1="5.3" y1="8.3" x2="23.3" y2="8.3"/>
<path class="st0" d="M18.3,12.3c0,2.2-1.8,4-4,4s-4-1.8-4-4"/>
<path class="st1" d="M20.3,27.4v-6.2c0-1.7,1.3-3,3-3s3,1.3,3,3v6.2"/>
<path class="st1" d="M26.4,27.3h-6.2c-1.7,0-3-1.3-3-3s1.3-3,3-3h6.2"/>
<line class="st0" x1="23.3" y1="21.2" x2="23.3" y2="27.4"/>
<line class="st0" x1="20.2" y1="24.3" x2="26.4" y2="24.3"/>
</svg>
