<?xml version="1.0" encoding="utf-8"?>
<!-- Generator: Adobe Illustrator 24.0.0, SVG Export Plug-In . SVG Version: 6.00 Build 0)  -->
<svg version="1.1" id="레이어_1" xmlns="http://www.w3.org/2000/svg" xmlns:xlink="http://www.w3.org/1999/xlink" x="0px"
	 y="0px" viewBox="0 0 28.5 28.5" style="enable-background:new 0 0 28.5 28.5;" xml:space="preserve">
<path d="M23.3,9.3h-18c-0.6,0-1-0.4-1-1s0.4-1,1-1h18c0.6,0,1,0.4,1,1S23.9,9.3,23.3,9.3z"/>
<path d="M14.3,17.3c-2.8,0-5-2.2-5-5c0-0.6,0.4-1,1-1s1,0.4,1,1c0,1.7,1.3,3,3,3s3-1.3,3-3c0-0.6,0.4-1,1-1s1,0.4,1,1
	C19.3,15.1,17.1,17.3,14.3,17.3z"/>
<path d="M17.2,24.3c0-0.4,0.1-0.7,0.2-1H7.3c-0.6,0-1-0.4-1-1V8.6l2.5-3.3h11l2.5,3.3v9.7c0.3-0.1,0.6-0.2,1-0.2
	c0.4,0,0.7,0.1,1,0.2V8.3c0-0.2-0.1-0.4-0.2-0.6l-3-4c-0.2-0.3-0.5-0.4-0.8-0.4h-12C8,3.3,7.7,3.4,7.5,3.7l-3,4
	C4.4,7.9,4.3,8.1,4.3,8.3v14c0,1.7,1.3,3,3,3h10.1C17.3,25,17.2,24.7,17.2,24.3z"/>
<path d="M23.3,28.4c-0.6,0-1-0.4-1-1v-6.2c0-0.6,0.4-1,1-1s1,0.4,1,1v6.2C24.3,28,23.9,28.4,23.3,28.4z"/>
<path d="M26.4,25.3h-6.2c-0.6,0-1-0.4-1-1s0.4-1,1-1h6.2c0.6,0,1,0.4,1,1S27,25.3,26.4,25.3z"/>
</svg>
