<?xml version="1.0" encoding="utf-8"?>
<!-- Generator: Adobe Illustrator 24.0.0, SVG Export Plug-In . SVG Version: 6.00 Build 0)  -->
<svg version="1.1" id="레이어_1" xmlns="http://www.w3.org/2000/svg" xmlns:xlink="http://www.w3.org/1999/xlink" x="0px"
	 y="0px" viewBox="0 0 28.5 28.5" style="enable-background:new 0 0 28.5 28.5;" xml:space="preserve">
<style type="text/css">
	.st0{fill:#FFFFFF;}
	.st1{fill:none;stroke:#000000;stroke-width:2;stroke-linecap:round;stroke-linejoin:round;}
	.st2{fill:none;stroke:#FFFFFF;stroke-width:2;stroke-linecap:round;stroke-linejoin:round;}
</style>
<g>
	<polygon points="23,7.9 20.3,4.3 8.3,4.3 5.6,7.9 	"/>
	<path d="M5.3,8.7v13.6c0,1.1,0.9,2,2,2h14c1.1,0,2-0.9,2-2V8.7H5.3z"/>
</g>
<path class="st0" d="M26.4,21.3h-0.1v-0.1c0-1.7-1.3-3-3-3s-3,1.3-3,3v0.1h-0.1c-1.7,0-3,1.3-3,3c0,1.7,1.3,3,3,3h0.1v0.1h6v-0.1
	h0.1V21.3z"/>
<line class="st1" x1="23.3" y1="21.2" x2="23.3" y2="27.4"/>
<line class="st1" x1="20.2" y1="24.3" x2="26.4" y2="24.3"/>
<path class="st2" d="M18.3,12.3c0,2.2-1.8,4-4,4s-4-1.8-4-4"/>
</svg>
